<?xml version="1.0" encoding="UTF-8" standalone="no"?>
<!-- Generated by Graphviz version 2.12 (Tue Sep  4 16:56:48 UTC 2007)
     For user: (keenan) Keenan Pepper,,, -->
<!-- Title: sciences Pages: 1 -->
<svg
   xmlns:dc="http://purl.org/dc/elements/1.1/"
   xmlns:cc="http://web.resource.org/cc/"
   xmlns:rdf="http://www.w3.org/1999/02/22-rdf-syntax-ns#"
   xmlns:svg="http://www.w3.org/2000/svg"
   xmlns="http://www.w3.org/2000/svg"
   xmlns:sodipodi="http://sodipodi.sourceforge.net/DTD/sodipodi-0.dtd"
   xmlns:inkscape="http://www.inkscape.org/namespaces/inkscape"
   width="591.99854"
   height="934.66431"
   id="svg2477"
   sodipodi:version="0.32"
   inkscape:version="0.45.1"
   sodipodi:docname="sciences.svg"
   sodipodi:docbase="/home/keenan"
   inkscape:output_extension="org.inkscape.output.svg.inkscape"
   version="1.0">
  <metadata
     id="metadata2756">
    <rdf:RDF>
      <cc:Work
         rdf:about="">
        <dc:format>image/svg+xml</dc:format>
        <dc:type
           rdf:resource="http://purl.org/dc/dcmitype/StillImage" />
      </cc:Work>
    </rdf:RDF>
  </metadata>
  <defs
     id="defs2754" />
  <sodipodi:namedview
     inkscape:window-height="720"
     inkscape:window-width="1280"
     inkscape:pageshadow="2"
     inkscape:pageopacity="0.0"
     guidetolerance="10.0"
     gridtolerance="10.0"
     objecttolerance="10.0"
     borderopacity="1.0"
     bordercolor="#666666"
     pagecolor="#ffffff"
     id="base"
     inkscape:zoom="0.5274621"
     inkscape:cx="295.99927"
     inkscape:cy="467.33215"
     inkscape:window-x="0"
     inkscape:window-y="53"
     inkscape:current-layer="svg2477" />
  <g
     id="graph0"
     class="graph"
     transform="matrix(1.33333,0,0,1.33333,5.999985,928.66431)">
    <title
       id="title2480">sciences</title>
    <polygon
       style="fill:#ffffff;stroke:#ffffff"
       points="-4,4 -4,-696 439,-696 439,4 -4,4 "
       id="polygon2482" />
<!-- logic -->    <g
       id="node1"
       class="node">
      <title
         id="title2485">logic</title>
      <polygon
         style="fill:none;stroke:#000000"
         points="261,-692 169,-692 169,-650 261,-650 261,-692 "
         id="polygon2487" />
      <text
         x="215"
         y="-676.33301"
         style="font-size:14.17500019px;text-anchor:middle;font-family:Nimbus Roman No9 L"
         id="text2489">Ratiocination</text>
      <text
         x="215"
         y="-659.53302"
         style="font-size:14.17500019px;text-anchor:middle;font-family:Nimbus Roman No9 L"
         id="text2491">(and logic)</text>
    </g>
<!-- math -->    <g
       id="node2"
       class="node">
      <title
         id="title2494">math</title>
      <polygon
         style="fill:none;stroke:#000000"
         points="258,-614 172,-614 172,-578 258,-578 258,-614 "
         id="polygon2496" />
      <text
         x="215"
         y="-592"
         style="font-size:14.17500019px;text-anchor:middle;font-family:Nimbus Roman No9 L"
         id="text2498">Mathematics</text>
    </g>
<!-- logic&#45;&gt;math -->    <g
       id="edge2"
       class="edge">
      <title
         id="title2501">logic-&gt;math</title>
      <path
         style="fill:none;stroke:#000000"
         d="M 215,-650 C 215,-642 215,-633 215,-624"
         id="path2503" />
      <polygon
         style="fill:#000000;stroke:#000000"
         points="218.5,-624 215,-614 211.5,-624 218.5,-624 "
         id="polygon2505" />
    </g>
<!-- physics -->    <g
       id="node3"
       class="node">
      <title
         id="title2508">physics</title>
      <polygon
         style="fill:none;stroke:#000000"
         points="244,-542 186,-542 186,-506 244,-506 244,-542 "
         id="polygon2510" />
      <text
         x="215"
         y="-520"
         style="font-size:14.17500019px;text-anchor:middle;font-family:Nimbus Roman No9 L"
         id="text2512">Physics</text>
    </g>
<!-- math&#45;&gt;physics -->    <g
       id="edge4"
       class="edge">
      <title
         id="title2515">math-&gt;physics</title>
      <path
         style="fill:none;stroke:#000000"
         d="M 215,-578 C 215,-570 215,-561 215,-552"
         id="path2517" />
      <polygon
         style="fill:#000000;stroke:#000000"
         points="218.5,-552 215,-542 211.5,-552 218.5,-552 "
         id="polygon2519" />
    </g>
<!-- chem -->    <g
       id="node4"
       class="node">
      <title
         id="title2522">chem</title>
      <polygon
         style="fill:none;stroke:#000000"
         points="252,-470 178,-470 178,-434 252,-434 252,-470 "
         id="polygon2524" />
      <text
         x="215"
         y="-448"
         style="font-size:14.17500019px;text-anchor:middle;font-family:Nimbus Roman No9 L"
         id="text2526">Chemistry</text>
    </g>
<!-- physics&#45;&gt;chem -->    <g
       id="edge6"
       class="edge">
      <title
         id="title2529">physics-&gt;chem</title>
      <path
         style="fill:none;stroke:#000000"
         d="M 215,-506 C 215,-498 215,-489 215,-480"
         id="path2531" />
      <polygon
         style="fill:#000000;stroke:#000000"
         points="218.5,-480 215,-470 211.5,-480 218.5,-480 "
         id="polygon2533" />
    </g>
<!-- xeno -->    <g
       id="node5"
       class="node">
      <title
         id="title2536">xeno</title>
      <polygon
         style="fill:none;stroke:#000000"
         points="140,-398 26,-398 26,-350 140,-350 140,-398 "
         id="polygon2538" />
      <text
         x="83"
         y="-382.33301"
         style="font-size:14.17500019px;text-anchor:middle;font-family:Nimbus Roman No9 L"
         id="text2540">Xeno-sciences</text>
      <text
         x="83"
         y="-368.867"
         style="font-size:10.125px;text-anchor:middle;font-family:Nimbus Roman No9 L"
         id="text2542">(cosmology, astronomy,</text>
      <text
         x="83"
         y="-356.867"
         style="font-size:10.125px;text-anchor:middle;font-family:Nimbus Roman No9 L"
         id="text2544">and planetary science)</text>
    </g>
<!-- chem&#45;&gt;xeno -->    <g
       id="edge8"
       class="edge">
      <title
         id="title2547">chem-&gt;xeno</title>
      <path
         style="fill:none;stroke:#000000"
         d="M 184,-434 C 169,-425 150,-414 133,-403"
         id="path2549" />
      <polygon
         style="fill:#000000;stroke:#000000"
         points="134.441,-399.797 124,-398 131.042,-405.916 134.441,-399.797 "
         id="polygon2551" />
    </g>
<!-- bio -->    <g
       id="node10"
       class="node">
      <title
         id="title2554">bio</title>
      <polygon
         style="fill:none;stroke:#000000"
         points="245,-392 185,-392 185,-356 245,-356 245,-392 "
         id="polygon2556" />
      <text
         x="215"
         y="-370"
         style="font-size:14.17500019px;text-anchor:middle;font-family:Nimbus Roman No9 L"
         id="text2558">Biology</text>
    </g>
<!-- chem&#45;&gt;bio -->    <g
       id="edge18"
       class="edge">
      <title
         id="title2561">chem-&gt;bio</title>
      <path
         style="fill:none;stroke:#000000"
         d="M 215,-434 C 215,-424 215,-413 215,-402"
         id="path2563" />
      <polygon
         style="fill:#000000;stroke:#000000"
         points="218.5,-402 215,-392 211.5,-402 218.5,-402 "
         id="polygon2565" />
    </g>
<!-- nano -->    <g
       id="node14"
       class="node">
      <title
         id="title2568">nano</title>
      <polygon
         style="fill:none;stroke:#000000"
         points="395,-392 305,-392 305,-356 395,-356 395,-392 "
         id="polygon2570" />
      <text
         x="350"
         y="-370"
         style="font-size:14.17500019px;text-anchor:middle;font-family:Nimbus Roman No9 L"
         id="text2572">Nano-science</text>
    </g>
<!-- chem&#45;&gt;nano -->    <g
       id="edge32"
       class="edge">
      <title
         id="title2575">chem-&gt;nano</title>
      <path
         style="fill:none;stroke:#000000"
         d="M 246,-434 C 265,-423 290,-409 310,-397"
         id="path2577" />
      <polygon
         style="fill:#000000;stroke:#000000"
         points="311.958,-399.916 319,-392 308.559,-393.797 311.958,-399.916 "
         id="polygon2579" />
    </g>
<!-- earth -->    <g
       id="node6"
       class="node">
      <title
         id="title2582">earth</title>
      <polygon
         style="fill:none;stroke:#000000"
         points="114,-314 2.84217e-14,-314 0,-266 114,-266 114,-314 "
         id="polygon2584" />
      <text
         x="57"
         y="-298.33301"
         style="font-size:14.17500019px;text-anchor:middle;font-family:Nimbus Roman No9 L"
         id="text2586">Earth sciences</text>
      <text
         x="57"
         y="-284.867"
         style="font-size:10.125px;text-anchor:middle;font-family:Nimbus Roman No9 L"
         id="text2588">(geology, oceanography,</text>
      <text
         x="57"
         y="-272.867"
         style="font-size:10.125px;text-anchor:middle;font-family:Nimbus Roman No9 L"
         id="text2590">and meteorology)</text>
    </g>
<!-- xeno&#45;&gt;earth -->    <g
       id="edge10"
       class="edge">
      <title
         id="title2593">xeno-&gt;earth</title>
      <path
         style="fill:none;stroke:#000000"
         d="M 75,-350 C 73,-342 70,-332 67,-324"
         id="path2595" />
      <polygon
         style="fill:#000000;stroke:#000000"
         points="70.2259,-322.573 64,-314 63.5212,-324.584 70.2259,-322.573 "
         id="polygon2597" />
    </g>
<!-- eco -->    <g
       id="node7"
       class="node">
      <title
         id="title2600">eco</title>
      <polygon
         style="fill:none;stroke:#000000"
         points="145,-230 47,-230 47,-172 145,-172 145,-230 "
         id="polygon2602" />
      <text
         x="96"
         y="-214.33299"
         style="font-size:14.17500019px;text-anchor:middle;font-family:Nimbus Roman No9 L"
         id="text2604">Eco-</text>
      <text
         x="96"
         y="-197.533"
         style="font-size:14.17500019px;text-anchor:middle;font-family:Nimbus Roman No9 L"
         id="text2606">environmental</text>
      <text
         x="96"
         y="-180.733"
         style="font-size:14.17500019px;text-anchor:middle;font-family:Nimbus Roman No9 L"
         id="text2608">science</text>
    </g>
<!-- earth&#45;&gt;eco -->    <g
       id="edge12"
       class="edge">
      <title
         id="title2611">earth-&gt;eco</title>
      <path
         style="fill:none;stroke:#000000"
         d="M 68,-266 C 72,-258 75,-249 79,-239"
         id="path2613" />
      <polygon
         style="fill:#000000;stroke:#000000"
         points="82.1369,-240.56 83,-230 75.7402,-237.717 82.1369,-240.56 "
         id="polygon2615" />
    </g>
<!-- socio -->    <g
       id="node8"
       class="node">
      <title
         id="title2618">socio</title>
      <polygon
         style="fill:none;stroke:#000000"
         points="276,-136 206,-136 206,-78 276,-78 276,-136 "
         id="polygon2620" />
      <text
         x="241"
         y="-120.333"
         style="font-size:14.17500019px;text-anchor:middle;font-family:Nimbus Roman No9 L"
         id="text2622">Socio-</text>
      <text
         x="241"
         y="-103.533"
         style="font-size:14.17500019px;text-anchor:middle;font-family:Nimbus Roman No9 L"
         id="text2624">economic</text>
      <text
         x="241"
         y="-86.733299"
         style="font-size:14.17500019px;text-anchor:middle;font-family:Nimbus Roman No9 L"
         id="text2626">sciences</text>
    </g>
<!-- eco&#45;&gt;socio -->    <g
       id="edge14"
       class="edge">
      <title
         id="title2629">eco-&gt;socio</title>
      <path
         style="fill:none;stroke:#000000"
         d="M 141,-172 C 159,-160 179,-147 197,-136"
         id="path2631" />
      <polygon
         style="fill:#000000;stroke:#000000"
         points="199.621,-138.459 206,-130 195.738,-132.635 199.621,-138.459 "
         id="polygon2633" />
    </g>
<!-- law -->    <g
       id="node9"
       class="node">
      <title
         id="title2636">law</title>
      <polygon
         style="fill:none;stroke:#000000"
         points="282,-42 200,-42 200,-1.42109e-14 282,0 282,-42 "
         id="polygon2638" />
      <text
         x="241"
         y="-26.3333"
         style="font-size:14.17500019px;text-anchor:middle;font-family:Nimbus Roman No9 L"
         id="text2640">Law</text>
      <text
         x="241"
         y="-9.53333"
         style="font-size:14.17500019px;text-anchor:middle;font-family:Nimbus Roman No9 L"
         id="text2642">(and ethics)</text>
    </g>
<!-- socio&#45;&gt;law -->    <g
       id="edge16"
       class="edge">
      <title
         id="title2645">socio-&gt;law</title>
      <path
         style="fill:none;stroke:#000000"
         d="M 241,-78 C 241,-70 241,-61 241,-52"
         id="path2647" />
      <polygon
         style="fill:#000000;stroke:#000000"
         points="244.5,-52 241,-42 237.5,-52 244.5,-52 "
         id="polygon2649" />
    </g>
<!-- bio&#45;&gt;eco -->    <g
       id="edge20"
       class="edge">
      <title
         id="title2652">bio-&gt;eco</title>
      <path
         style="fill:none;stroke:#000000"
         d="M 197,-356 C 186,-344 172,-329 161,-314 C 143,-290 127,-262 116,-239"
         id="path2654" />
      <polygon
         style="fill:#000000;stroke:#000000"
         points="118.916,-237.042 111,-230 112.797,-240.441 118.916,-237.042 "
         id="polygon2656" />
    </g>
<!-- brain -->    <g
       id="node11"
       class="node">
      <title
         id="title2659">brain</title>
      <polygon
         style="fill:none;stroke:#000000"
         points="260,-308 170,-308 170,-272 260,-272 260,-308 "
         id="polygon2661" />
      <text
         x="215"
         y="-286"
         style="font-size:14.17500019px;text-anchor:middle;font-family:Nimbus Roman No9 L"
         id="text2663">Brain science</text>
    </g>
<!-- bio&#45;&gt;brain -->    <g
       id="edge22"
       class="edge">
      <title
         id="title2666">bio-&gt;brain</title>
      <path
         style="fill:none;stroke:#000000"
         d="M 215,-356 C 215,-345 215,-331 215,-318"
         id="path2668" />
      <polygon
         style="fill:#000000;stroke:#000000"
         points="218.5,-318 215,-308 211.5,-318 218.5,-318 "
         id="polygon2670" />
    </g>
<!-- agro -->    <g
       id="node13"
       class="node">
      <title
         id="title2673">agro</title>
      <polygon
         style="fill:none;stroke:#000000"
         points="333,-219 243,-219 243,-183 333,-183 333,-219 "
         id="polygon2675" />
      <text
         x="288"
         y="-197"
         style="font-size:14.17500019px;text-anchor:middle;font-family:Nimbus Roman No9 L"
         id="text2677">Agro-science</text>
    </g>
<!-- bio&#45;&gt;agro -->    <g
       id="edge28"
       class="edge">
      <title
         id="title2680">bio-&gt;agro</title>
      <path
         style="fill:none;stroke:#000000"
         d="M 236,-356 C 248,-345 261,-330 269,-314 C 282,-287 286,-253 287,-229"
         id="path2682" />
      <polygon
         style="fill:#000000;stroke:#000000"
         points="290.488,-229.299 288,-219 283.522,-228.602 290.488,-229.299 "
         id="polygon2684" />
    </g>
<!-- med -->    <g
       id="node12"
       class="node">
      <title
         id="title2687">med</title>
      <polygon
         style="fill:none;stroke:#000000"
         points="225,-222 163,-222 163,-180 225,-180 225,-222 "
         id="polygon2689" />
      <text
         x="194"
         y="-206.33299"
         style="font-size:14.17500019px;text-anchor:middle;font-family:Nimbus Roman No9 L"
         id="text2691">Medical</text>
      <text
         x="194"
         y="-189.533"
         style="font-size:14.17500019px;text-anchor:middle;font-family:Nimbus Roman No9 L"
         id="text2693">science</text>
    </g>
<!-- brain&#45;&gt;med -->    <g
       id="edge24"
       class="edge">
      <title
         id="title2696">brain-&gt;med</title>
      <path
         style="fill:none;stroke:#000000"
         d="M 211,-272 C 209,-261 205,-245 202,-232"
         id="path2698" />
      <polygon
         style="fill:#000000;stroke:#000000"
         points="205.226,-230.573 199,-222 198.521,-232.584 205.226,-230.573 "
         id="polygon2700" />
    </g>
<!-- med&#45;&gt;socio -->    <g
       id="edge26"
       class="edge">
      <title
         id="title2703">med-&gt;socio</title>
      <path
         style="fill:none;stroke:#000000"
         d="M 205,-180 C 211,-170 217,-157 222,-145"
         id="path2705" />
      <polygon
         style="fill:#000000;stroke:#000000"
         points="225.203,-146.441 227,-136 219.084,-143.042 225.203,-146.441 "
         id="polygon2707" />
    </g>
<!-- agro&#45;&gt;socio -->    <g
       id="edge30"
       class="edge">
      <title
         id="title2710">agro-&gt;socio</title>
      <path
         style="fill:none;stroke:#000000"
         d="M 279,-183 C 273,-172 266,-159 260,-145"
         id="path2712" />
      <polygon
         style="fill:#000000;stroke:#000000"
         points="262.916,-143.042 255,-136 256.797,-146.441 262.916,-143.042 "
         id="polygon2714" />
    </g>
<!-- comp -->    <g
       id="node15"
       class="node">
      <title
         id="title2717">comp</title>
      <polygon
         style="fill:none;stroke:#000000"
         points="413,-311 335,-311 335,-269 413,-269 413,-311 "
         id="polygon2719" />
      <text
         x="374"
         y="-295.33301"
         style="font-size:14.17500019px;text-anchor:middle;font-family:Nimbus Roman No9 L"
         id="text2721">Computer</text>
      <text
         x="374"
         y="-278.53299"
         style="font-size:14.17500019px;text-anchor:middle;font-family:Nimbus Roman No9 L"
         id="text2723">technology</text>
    </g>
<!-- nano&#45;&gt;comp -->    <g
       id="edge34"
       class="edge">
      <title
         id="title2726">nano-&gt;comp</title>
      <path
         style="fill:none;stroke:#000000"
         d="M 355,-356 C 358,-346 362,-333 365,-321"
         id="path2728" />
      <polygon
         style="fill:#000000;stroke:#000000"
         points="368.479,-321.584 368,-311 361.774,-319.573 368.479,-321.584 "
         id="polygon2730" />
    </g>
<!-- eng -->    <g
       id="node16"
       class="node">
      <title
         id="title2733">eng</title>
      <polygon
         style="fill:none;stroke:#000000"
         points="435,-219 351,-219 351,-183 435,-183 435,-219 "
         id="polygon2735" />
      <text
         x="393"
         y="-197"
         style="font-size:14.17500019px;text-anchor:middle;font-family:Nimbus Roman No9 L"
         id="text2737">Engineering</text>
    </g>
<!-- comp&#45;&gt;eng -->    <g
       id="edge36"
       class="edge">
      <title
         id="title2740">comp-&gt;eng</title>
      <path
         style="fill:none;stroke:#000000"
         d="M 379,-269 C 381,-257 384,-242 387,-229"
         id="path2742" />
      <polygon
         style="fill:#000000;stroke:#000000"
         points="390.471,-229.492 389,-219 383.607,-228.119 390.471,-229.492 "
         id="polygon2744" />
    </g>
<!-- eng&#45;&gt;socio -->    <g
       id="edge38"
       class="edge">
      <title
         id="title2747">eng-&gt;socio</title>
      <path
         style="fill:none;stroke:#000000"
         d="M 364,-183 C 342,-170 310,-150 285,-134"
         id="path2749" />
      <polygon
         style="fill:#000000;stroke:#000000"
         points="286.441,-130.797 276,-129 283.042,-136.916 286.441,-130.797 "
         id="polygon2751" />
    </g>
  </g>
</svg>
